<svg xmlns="http://www.w3.org/2000/svg" version="1.1" xmlns:xlink="http://www.w3.org/1999/xlink" xmlns:svgjs="http://svgjs.dev/svgjs" width="1000" height="1000" viewBox="0 0 1000 1000"><rect width="1000" height="1000" fill="#ffffff"></rect><g transform="matrix(0.7,0,0,0.7,149.57575757575756,282.1265587044535)"><svg viewBox="0 0 396 247" data-background-color="#ffffff" preserveAspectRatio="xMidYMid meet" height="623" width="1000" xmlns="http://www.w3.org/2000/svg" xmlns:xlink="http://www.w3.org/1999/xlink"><g id="tight-bounds" transform="matrix(1,0,0,1,0.2400000000000091,-0.09999999999999432)"><svg viewBox="0 0 395.52 247.2" height="247.2" width="395.52"><g><svg></svg></g><g><svg viewBox="0 0 395.52 247.2" height="247.2" width="395.52"><g transform="matrix(1,0,0,1,75.54432,93.54724545059236)"><svg viewBox="0 0 244.43135999999998 60.10550909881527" height="60.10550909881527" width="244.43135999999998"><g><svg viewBox="0 0 244.43135999999998 60.10550909881527" height="60.10550909881527" width="244.43135999999998"><g><svg viewBox="0 0 244.43135999999998 60.10550909881527" height="60.10550909881527" width="244.43135999999998"><g><svg viewBox="0 0 244.43135999999998 60.10550909881527" height="60.10550909881527" width="244.43135999999998"><g><svg viewBox="0 0 244.43135999999998 60.10550909881527" height="60.10550909881527" width="244.43135999999998"><g><svg viewBox="0 0 244.43135999999998 60.10550909881527" height="60.10550909881527" width="244.43135999999998"><g transform="matrix(1,0,0,1,0,0)"><svg width="244.43135999999998" viewBox="0.75 -40 164.89487064448 40.55" height="60.10550909881527" data-palette-color="#fdba76"><path d="M17.35-34.65L17.35-2Q17.35 0.4 14.35 0.4L14.35 0.4Q11.4 0.4 11.4-2L11.4-2 11.4-34.65 2.65-34.65Q0.85-34.65 0.75-37.2L0.75-37.2Q0.75-39.7 2.65-39.7L2.65-39.7 26.1-39.7Q28-39.7 27.9-37.2L27.9-37.2Q27.9-34.65 26.1-34.65L26.1-34.65 17.35-34.65ZM46 0L39.45 0Q37.9 0 36.5-0.43 35.1-0.85 33.8-1.65L33.8-1.65 33.8-1.6Q31.35-3.15 31.35-7.3L31.35-7.3 31.35-9.75Q31.35-11.8 32.07-13.33 32.8-14.85 34.1-15.75L34.1-15.75 34.05-15.75Q35.3-16.6 36.7-17.03 38.1-17.45 39.4-17.45L39.4-17.45 50.45-17.45 50.45-22.1Q50.45-23.35 49.67-24.38 48.9-25.4 47.05-25.4L47.05-25.4 41.2-25.4Q39.3-25.4 38.57-24.48 37.85-23.55 37.85-22.3L37.85-22.3 37.85-21.9Q37.85-19.3 35.05-19.3L35.05-19.3Q32.25-19.3 32.25-21.9L32.25-21.9 32.25-22.35Q32.25-24.4 32.97-25.8 33.7-27.2 34.95-28.15L34.95-28.15 34.9-28.15Q36.2-29 37.62-29.55 39.05-30.1 40.35-30.1L40.35-30.1 47.95-30.1Q49.2-30.1 50.62-29.55 52.05-29 53.3-28.15L53.3-28.15 53.25-28.15Q54.55-27.2 55.25-25.68 55.95-24.15 55.95-22.15L55.95-22.15 55.95-2.1Q55.95 0.3 53.2 0.3L53.2 0.3Q52.65 0.3 52.17 0.25 51.7 0.2 51.32-0.03 50.95-0.25 50.72-0.68 50.5-1.1 50.5-1.8L50.5-1.8 50.45-12.75 40.35-12.75Q39.25-12.75 38.65-12.5 38.05-12.25 37.7-11.7L37.7-11.7Q37.3-10.85 37.12-10.38 36.95-9.9 36.95-9.3L36.95-9.3 36.95-7.35Q36.95-6.05 37.72-5.38 38.5-4.7 40.4-4.7L40.4-4.7 46-4.7Q47.85-4.7 47.85-2.35L47.85-2.35Q47.85-1.35 47.4-0.68 46.95 0 46 0L46 0ZM71.3-17.5L78.64-17.5Q79.89-17.5 81.32-16.93 82.75-16.35 84-15.5L84-15.5 83.94-15.5Q85.25-14.55 85.94-13.05 86.64-11.55 86.64-9.45L86.64-9.45 86.64-7.95Q86.64-3.85 83.94-1.9L83.94-1.9Q82.64-0.9 81.3-0.45 79.94 0 78.64 0L78.64 0 70.14 0Q68.84 0 67.5-0.45 66.14-0.9 64.84-1.9L64.84-1.9Q62.14-3.8 62.14-7.95L62.14-7.95 62.14-8.55Q62.14-10.7 64.89-10.65L64.89-10.65Q67.69-10.65 67.69-8.55L67.69-8.55 67.69-8Q67.69-6.8 68.44-5.75 69.19-4.7 71.09-4.7L71.09-4.7 77.69-4.7Q79.59-4.7 80.34-5.75 81.09-6.8 81.09-8L81.09-8 81.09-9.4Q81.09-10.05 80.92-10.65 80.75-11.25 80.34-11.73 79.94-12.2 79.3-12.5 78.64-12.8 77.69-12.8L77.69-12.8 70.39-12.8Q67.84-12.8 65.05-14.6L65.05-14.6Q62.39-16.3 62.39-20.45L62.39-20.45 62.39-22.15Q62.39-24.15 63.09-25.68 63.8-27.2 65.09-28.15L65.09-28.15 65.05-28.15Q66.3-29 67.69-29.55 69.09-30.1 70.39-30.1L70.39-30.1 78.39-30.1Q79.69-30.1 81.07-29.55 82.44-29 83.75-28.15L83.75-28.15 83.69-28.15Q85-27.2 85.69-25.68 86.39-24.15 86.39-22.15L86.39-22.15 86.39-21.7Q86.39-20.65 85.69-20.18 85-19.7 83.64-19.65L83.64-19.65Q80.89-19.6 80.89-21.7L80.89-21.7 80.89-22.1Q80.89-23.35 80.12-24.38 79.34-25.4 77.5-25.4L77.5-25.4 71.3-25.4Q69.44-25.4 68.67-24.38 67.89-23.35 67.89-22.1L67.89-22.1 67.89-20.9Q67.89-19.6 68.67-18.55 69.44-17.5 71.3-17.5L71.3-17.5ZM114.59-26.5L98.64-8.35 98.64-2Q98.64 0.35 95.89 0.35L95.89 0.35Q93.14 0.35 93.14-2L93.14-2 93.14-37.6Q93.14-40 95.89-40L95.89-40Q98.64-40 98.64-37.6L98.64-37.6 98.64-16.4Q99.89-17.9 101.42-19.63 102.94-21.35 104.47-23.13 105.99-24.9 107.49-26.63 108.99-28.35 110.29-29.85L110.29-29.85 110.29-29.8Q111.19-30.85 112.09-30.85L112.09-30.85Q112.59-30.85 113.07-30.63 113.54-30.4 114.09-30L114.09-30 114.04-30Q115.24-29 115.24-28L115.24-28Q115.24-27.65 115.09-27.23 114.94-26.8 114.59-26.5L114.59-26.5ZM109.84-13.75L115.34-3.35Q115.69-2.7 115.69-2L115.69-2Q115.69-0.7 114.19-0.05L114.19-0.05Q113.19 0.55 112.39 0.55L112.39 0.55Q111.84 0.55 111.34 0.18 110.84-0.2 110.54-0.75L110.54-0.75 105.54-10.4Q105.09-11.15 105.09-11.9L105.09-11.9Q105.09-13.15 106.39-14L106.39-14Q106.74-14.25 107.12-14.45 107.49-14.65 107.94-14.75L107.94-14.75Q108.49-14.85 108.99-14.55 109.49-14.25 109.84-13.75L109.84-13.75ZM125.29-22.15L125.29-8Q125.29-6.8 126.07-5.75 126.84-4.7 128.69-4.7L128.69-4.7 134.94-4.7Q136.79-4.7 137.56-5.63 138.34-6.55 138.34-7.75L138.34-7.75 138.34-8.3Q138.34-10.65 141.09-10.65L141.09-10.65Q143.84-10.65 143.84-8.3L143.84-8.3 143.84-7.7Q143.84-5.6 143.17-4.25 142.49-2.9 141.14-1.9L141.14-1.9Q138.49 0 135.84 0L135.84 0 127.44 0Q124.79 0 122.29-1.9L122.29-1.9Q121.09-2.9 120.44-4.42 119.79-5.95 119.79-7.95L119.79-7.95 119.79-22.2Q119.79-26.25 122.29-28.2L122.29-28.2Q123.54-29.1 124.87-29.63 126.19-30.15 127.44-30.15L127.44-30.15 135.84-30.15Q137.04-30.15 138.49-29.68 139.94-29.2 141.19-28.4L141.19-28.4Q142.39-27.55 143.12-26.05 143.84-24.55 143.84-22.5L143.84-22.5 143.84-15.75Q143.84-14.6 143.17-13.7 142.49-12.8 140.69-12.8L140.69-12.8 129.89-12.8Q128.09-12.8 127.99-15.15L127.99-15.15Q127.99-17.5 129.89-17.5L129.89-17.5 138.39-17.5 138.34-22.15Q138.34-23.4 137.56-24.43 136.79-25.45 134.94-25.45L134.94-25.45 128.69-25.45Q126.84-25.45 126.07-24.43 125.29-23.4 125.29-22.15L125.29-22.15ZM155.59-22.75L155.59-2.1Q155.59 0.3 152.84 0.3L152.84 0.3Q149.99 0.3 149.99-2.1L149.99-2.1 149.99-22.8Q149.99-26.9 152.44-28.5L152.44-28.5Q154.89-30.1 158.09-30.1L158.09-30.1 163.79-30.1Q165.64-30.1 165.64-27.75L165.64-27.75Q165.74-25.4 163.79-25.4L163.79-25.4 158.49-25.4Q156.69-25.4 156.14-24.7 155.59-24 155.59-22.75L155.59-22.75Z" opacity="1" transform="matrix(1,0,0,1,0,0)" fill="#fdba76" class="undefined-text-0" data-fill-palette-color="primary" id="text-0"></path></svg></g></svg></g></svg></g></svg></g></svg></g></svg></g></svg></g><path d="M196.873 87.547L196.873 28.844 386.386 28.844 386.386 218.356 196.873 218.356 196.873 159.653 202.293 159.653 202.293 212.936 380.965 212.936 380.965 34.264 202.293 34.264 202.293 87.547Z" fill="#fdba76" stroke="transparent" data-fill-palette-color="primary"></path></svg></g><defs></defs></svg><rect width="395.52" height="247.2" fill="none" stroke="none" visibility="hidden"></rect></g></svg></g></svg>